# xmcd
#
# Track frame offsets: 
#        150
#        15696
#        31204
#        48320
#        58072
#        76463
#        91523
#        109071
#        122501
#        135652
#        154343
#
# Disc length: 2179 seconds
#
# Revision: 0
# Processed by: cddbd v1.5.2PL0 Copyright (c) Steve Scherf et al.
# Submitted via: ExactAudioCopyFreeDBPlugin 1.0
#
DISCID=8208810b
DTITLE=Delaney Davidson and Marlon Williams - Sad But True, Volume 1
DYEAR=2012
DGENRE=New Zealand: Country/Blues
TTITLE0=Travelling Creature
TTITLE1=Still Her Heart
TTITLE2=Bloodletter
TTITLE3=Death Don't Have No Mercy
TTITLE4=Demons Claws
TTITLE5=Heaven For You
TTITLE6=How Lucky
TTITLE7=Dr Captain
TTITLE8=Please Don't Let Me Love You
TTITLE9=Cold and Blind
TTITLE10=Trail of Broken Hearts
EXTD=
EXTT0=
EXTT1=
EXTT2=
EXTT3=
EXTT4=
EXTT5=
EXTT6=
EXTT7=
EXTT8=
EXTT9=
EXTT10=
PLAYORDER=
